<svg height="25px" width="25px" version="1.1" id="Layer_1" xmlns="http://www.w3.org/2000/svg" xmlns:xlink="http://www.w3.org/1999/xlink" viewBox="0 0 512 512" xml:space="preserve" fill="#000000" data-darkreader-inline-fill="" style="--darkreader-inline-fill: var(--darkreader-background-000000, #000000);"><g id="SVGRepo_bgCarrier" stroke-width="0"></g><g id="SVGRepo_tracerCarrier" stroke-linecap="round" stroke-linejoin="round"></g><g id="SVGRepo_iconCarrier"> <g> <path style="fill: rgb(204, 195, 168); --darkreader-inline-fill: var(--darkreader-text-ccc3a8, #c8bfa2);" d="M453.1,323.968v59.29v56.096v59.29c0,7.376,5.98,13.357,13.357,13.357h12.813 c7.376,0,13.357-5.98,13.357-13.357v-59.29v-56.096v-59.29H453.1z" data-darkreader-inline-fill=""></path> <path style="fill: rgb(204, 195, 168); --darkreader-inline-fill: var(--darkreader-text-ccc3a8, #c8bfa2);" d="M19.371,322.838v116.517v59.289c0,7.376,5.98,13.357,13.357,13.357h12.813 c7.376,0,13.357-5.98,13.357-13.357v-59.29V322.838v-59.29H19.371V322.838z" data-darkreader-inline-fill=""></path> <path style="fill: rgb(204, 195, 168); --darkreader-inline-fill: var(--darkreader-text-ccc3a8, #c8bfa2);" d="M308.526,234.538v204.817v59.288c0,7.376,5.978,13.357,13.357,13.357h12.811 c7.378,0,13.357-5.98,13.357-13.357v-59.29v-65.583v-28.939v-30.35v-28.939v-51.005v-59.288h-39.524V234.538z" data-darkreader-inline-fill=""></path> <path style="fill: rgb(204, 195, 168); --darkreader-inline-fill: var(--darkreader-text-ccc3a8, #c8bfa2);" d="M163.948,383.258v56.096v59.29c0,7.376,5.98,13.357,13.357,13.357h12.813 c7.376,0,13.357-5.98,13.357-13.357v-59.29v-56.096v-59.29h-39.526V383.258z" data-darkreader-inline-fill=""></path> <path style="fill: rgb(204, 195, 168); --darkreader-inline-fill: var(--darkreader-text-ccc3a8, #c8bfa2);" d="M479.27,0h-12.813C459.08,0,453.1,5.98,453.1,13.357v69.272v179.79v69.272h39.526v-69.272V82.629 V13.357C492.626,5.98,486.646,0,479.27,0z" data-darkreader-inline-fill=""></path> <path style="fill: rgb(204, 195, 168); --darkreader-inline-fill: var(--darkreader-text-ccc3a8, #c8bfa2);" d="M45.541,0H32.728c-7.376,0-13.357,5.98-13.357,13.357v69.272V202v69.272h39.526V202V82.629V13.357 C58.898,5.98,52.917,0,45.541,0z" data-darkreader-inline-fill=""></path> <path style="fill: rgb(204, 195, 168); --darkreader-inline-fill: var(--darkreader-text-ccc3a8, #c8bfa2);" d="M334.693,0h-12.811c-7.378,0-13.357,5.98-13.357,13.357v69.272V113.7v69.272h39.524V113.7V82.629 V13.357C348.05,5.98,342.072,0,334.693,0z" data-darkreader-inline-fill=""></path> <path style="fill: rgb(204, 195, 168); --darkreader-inline-fill: var(--darkreader-text-ccc3a8, #c8bfa2);" d="M190.118,0h-12.813c-7.376,0-13.357,5.98-13.357,13.357v69.272v179.79v69.272h39.526v-69.272 v-60.472v-30.04v-39.233v-30.04V82.629V13.357C203.474,5.98,197.494,0,190.118,0z" data-darkreader-inline-fill=""></path> </g> <g> <path style="fill: rgb(124, 122, 117); --darkreader-inline-fill: var(--darkreader-text-7c7a75, #9c9386);" d="M222.848,369.901c0,7.377-5.98,13.357-13.357,13.357h-51.558c-7.378,0-13.357-5.979-13.357-13.357 v-94.126c0-7.376,5.978-13.357,13.357-13.357h51.558c7.376,0,13.357,5.98,13.357,13.357V369.901z" data-darkreader-inline-fill=""></path> <path style="fill: rgb(124, 122, 117); --darkreader-inline-fill: var(--darkreader-text-7c7a75, #9c9386);" d="M512,369.901c0,7.377-5.98,13.357-13.357,13.357h-51.558c-7.378,0-13.357-5.979-13.357-13.357 v-94.126c0-7.376,5.978-13.357,13.357-13.357h51.558c7.376,0,13.357,5.98,13.357,13.357V369.901z" data-darkreader-inline-fill=""></path> <path style="fill: rgb(124, 122, 117); --darkreader-inline-fill: var(--darkreader-text-7c7a75, #9c9386);" d="M78.271,309.482c0,7.377-5.98,13.357-13.357,13.357H13.357C5.978,322.838,0,316.859,0,309.482 v-94.126C0,207.98,5.978,202,13.357,202h51.558c7.376,0,13.357,5.98,13.357,13.357V309.482z" data-darkreader-inline-fill=""></path> <path style="fill: rgb(124, 122, 117); --darkreader-inline-fill: var(--darkreader-text-7c7a75, #9c9386);" d="M367.423,221.182c0,7.377-5.98,13.357-13.357,13.357h-51.558c-7.378,0-13.357-5.979-13.357-13.357 v-94.125c0-7.376,5.978-13.357,13.357-13.357h51.558c7.376,0,13.357,5.98,13.357,13.357V221.182z" data-darkreader-inline-fill=""></path> </g> <g> <path style="fill: rgb(107, 104, 97); --darkreader-inline-fill: var(--darkreader-text-6b6861, #a8a095);" d="M166.836,369.901v-94.126c0-7.376,5.979-13.357,13.357-13.357h-22.26 c-7.378,0-13.357,5.98-13.357,13.357v94.126c0,7.377,5.978,13.357,13.357,13.357h22.26 C172.816,383.258,166.836,377.278,166.836,369.901z" data-darkreader-inline-fill=""></path> <path style="fill: rgb(107, 104, 97); --darkreader-inline-fill: var(--darkreader-text-6b6861, #a8a095);" d="M455.988,369.901v-94.126c0-7.376,5.979-13.357,13.357-13.357h-22.26 c-7.378,0-13.357,5.98-13.357,13.357v94.126c0,7.377,5.978,13.357,13.357,13.357h22.26 C461.968,383.258,455.988,377.278,455.988,369.901z" data-darkreader-inline-fill=""></path> <path style="fill: rgb(107, 104, 97); --darkreader-inline-fill: var(--darkreader-text-6b6861, #a8a095);" d="M22.26,309.482v-94.126c0-7.376,5.979-13.357,13.357-13.357h-22.26C5.978,202,0,207.98,0,215.356 v94.126c0,7.377,5.978,13.357,13.357,13.357h22.26C28.239,322.838,22.26,316.859,22.26,309.482z" data-darkreader-inline-fill=""></path> <path style="fill: rgb(107, 104, 97); --darkreader-inline-fill: var(--darkreader-text-6b6861, #a8a095);" d="M311.412,221.182v-94.125c0-7.376,5.979-13.357,13.357-13.357h-22.26 c-7.378,0-13.357,5.98-13.357,13.357v94.125c0,7.377,5.978,13.357,13.357,13.357h22.26 C317.391,234.538,311.412,228.559,311.412,221.182z" data-darkreader-inline-fill=""></path> </g> <g> <path style="fill: rgb(54, 161, 203); --darkreader-inline-fill: var(--darkreader-text-36a1cb, #4aaad0);" d="M35.977,249.289v27.024c0,5.825,3.733,10.764,8.933,12.592h33.361v-52.972H49.333 C41.956,235.933,35.977,241.912,35.977,249.289z" data-darkreader-inline-fill=""></path> <path style="fill: rgb(54, 161, 203); --darkreader-inline-fill: var(--darkreader-text-36a1cb, #4aaad0);" d="M193.91,295.981c-7.377,0-13.357,5.979-13.357,13.357v26.259c0,7.377,5.979,13.357,13.357,13.357 h28.938v-52.972H193.91z" data-darkreader-inline-fill=""></path> </g> <g> <path style="fill: rgb(43, 128, 175); --darkreader-inline-fill: var(--darkreader-text-2b80af, #5cabd7);" d="M201.7,335.596v-26.259c0-7.377,5.98-13.357,13.357-13.357H193.91 c-7.377,0-13.357,5.979-13.357,13.357v26.259c0,7.377,5.979,13.357,13.357,13.357h21.147 C207.681,348.952,201.7,342.973,201.7,335.596z" data-darkreader-inline-fill=""></path> <path style="fill: rgb(43, 128, 175); --darkreader-inline-fill: var(--darkreader-text-2b80af, #5cabd7);" d="M57.124,275.548v-26.259c0-7.377,5.98-13.357,13.357-13.357H49.333 c-7.377,0-13.357,5.979-13.357,13.357v26.259c0,7.377,5.979,13.357,13.357,13.357H70.48 C63.104,288.905,57.124,282.924,57.124,275.548z" data-darkreader-inline-fill=""></path> </g> <g> <path style="fill: rgb(54, 161, 203); --darkreader-inline-fill: var(--darkreader-text-36a1cb, #4aaad0);" d="M483.062,295.981c-7.377,0-13.357,5.979-13.357,13.357v26.259c0,7.377,5.979,13.357,13.357,13.357 H512v-52.972H483.062z" data-darkreader-inline-fill=""></path> <path style="fill: rgb(54, 161, 203); --darkreader-inline-fill: var(--darkreader-text-36a1cb, #4aaad0);" d="M338.485,147.633c-7.377,0-13.357,5.979-13.357,13.357v24.974h14.675v14.641h27.619v-52.972 L338.485,147.633L338.485,147.633z" data-darkreader-inline-fill=""></path> </g> <g> <path style="fill: rgb(43, 128, 175); --darkreader-inline-fill: var(--darkreader-text-2b80af, #5cabd7);" d="M346.276,187.247v-26.259c0-7.377,5.98-13.357,13.357-13.357h-21.147 c-7.377,0-13.357,5.979-13.357,13.357v26.259c0,7.377,5.979,13.357,13.357,13.357h21.147 C352.256,200.604,346.276,194.625,346.276,187.247z" data-darkreader-inline-fill=""></path> <path style="fill: rgb(43, 128, 175); --darkreader-inline-fill: var(--darkreader-text-2b80af, #5cabd7);" d="M490.852,335.596v-26.259c0-7.377,5.98-13.357,13.357-13.357h-21.147 c-7.377,0-13.357,5.979-13.357,13.357v26.259c0,7.377,5.979,13.357,13.357,13.357h21.147 C496.833,348.952,490.852,342.973,490.852,335.596z" data-darkreader-inline-fill=""></path> </g> </g></svg>