<svg width="35px" height="35px" viewBox="0 0 48 48" fill="none" xmlns="http://www.w3.org/2000/svg"><g id="SVGRepo_bgCarrier" stroke-width="0"></g><g id="SVGRepo_tracerCarrier" stroke-linecap="round" stroke-linejoin="round"></g><g id="SVGRepo_iconCarrier"> <rect width="48" height="48" fill="white" fill-opacity="0.01" data-darkreader-inline-fill="" style="--darkreader-inline-fill: var(--darkreader-background-ffffff, #181a1b);"></rect> <path d="M10.0266 40.9736L10.0266 18.9736H4.02661L4.02661 40.9736H10.0266Z" fill="#2F88FF" stroke="#000000" stroke-width="4" stroke-linejoin="round" data-darkreader-inline-fill="" data-darkreader-inline-stroke="" style="--darkreader-inline-fill: var(--darkreader-background-2f88ff, #004bb0); --darkreader-inline-stroke: var(--darkreader-text-000000, #e8e6e3);"></path> <path fill-rule="evenodd" clip-rule="evenodd" d="M10.0266 18.9736C17.1495 12.4546 21.2774 8.71403 22.4104 7.75178C24.1098 6.30839 26.0306 6.91448 26.0306 10.5266C26.0306 14.1388 20.7452 16.222 20.7452 18.9736C20.7418 18.99 27.5009 18.9911 41.0226 18.9769C42.6799 18.9752 44.0249 20.3173 44.0266 21.9746L44.0266 21.9778C44.0266 23.637 42.6816 24.982 41.0224 24.982H33.013C31.8042 32.9547 31.1373 37.2893 31.0122 37.9856C30.8247 39.0302 29.8276 40.9736 26.9586 40.9736C25.0459 40.9736 20.0686 40.9736 10.0266 40.9736V18.9736Z" stroke="#000000" stroke-width="4" stroke-linejoin="round" data-darkreader-inline-stroke="" style="--darkreader-inline-stroke: var(--darkreader-text-000000, #e8e6e3);"></path> </g></svg>