<svg aria-hidden="true" focusable="false" class="icon" width="35px" height="35px" viewBox="0 0 48 48" fill="none" xmlns="http://www.w3.org/2000/svg"><g id="SVGRepo_bgCarrier" stroke-width="0"></g><g id="SVGRepo_tracerCarrier" stroke-linecap="round" stroke-linejoin="round"></g><g id="SVGRepo_iconCarrier"> <path d="M44 24H30C30 20.69 27.31 18 24 18C20.69 18 18 20.69 18 24H4C4 12.95 12.95 4 24 4C35.05 4 44 12.95 44 24Z" fill="#2F88FF" stroke="#000000" stroke-width="4" stroke-miterlimit="2" stroke-linejoin="round" data-darkreader-inline-fill="" data-darkreader-inline-stroke="" style="--darkreader-inline-fill: var(--darkreader-background-2f88ff, #004bb0); --darkreader-inline-stroke: var(--darkreader-text-000000, #e8e6e3);"></path> <path d="M18 24H4C4 35.05 12.95 44 24 44C35.05 44 44 35.05 44 24H30" stroke="#000000" stroke-width="4" stroke-miterlimit="2" stroke-linecap="round" stroke-linejoin="round" data-darkreader-inline-stroke="" style="--darkreader-inline-stroke: var(--darkreader-text-000000, #e8e6e3);"></path> <path d="M24 30C27.3137 30 30 27.3137 30 24C30 20.6863 27.3137 18 24 18C20.6863 18 18 20.6863 18 24C18 27.3137 20.6863 30 24 30Z" stroke="#000000" stroke-width="4" stroke-miterlimit="2" stroke-linejoin="round" data-darkreader-inline-stroke="" style="--darkreader-inline-stroke: var(--darkreader-text-000000, #e8e6e3);"></path> </g></svg>