<svg aria-hidden="true" focusable="false" class="icon" height="30px" width="30px" version="1.1" id="Layer_1" xmlns="http://www.w3.org/2000/svg" xmlns:xlink="http://www.w3.org/1999/xlink" viewBox="0 0 504.131 504.131" xml:space="preserve" fill="#000000" data-darkreader-inline-fill="" style="--darkreader-inline-fill: var(--darkreader-background-000000, #000000);"><g id="SVGRepo_bgCarrier" stroke-width="0"></g><g id="SVGRepo_tracerCarrier" stroke-linecap="round" stroke-linejoin="round"></g><g id="SVGRepo_iconCarrier"> <path style="fill: rgb(120, 135, 134); --darkreader-inline-fill: var(--darkreader-text-788786, #988f81);" d="M149.713,90.183c-18.802,0-34.107-15.297-34.107-34.099v-3.757l15.919-15.927V9.09 c0-5.025,4.072-9.09,9.09-9.09s9.09,4.072,9.09,9.09v34.832l-15.557,15.565c1.567,7.136,7.956,12.501,15.557,12.501 c5.033,0,9.09,4.072,9.09,9.106C158.803,86.118,154.746,90.183,149.713,90.183z" data-darkreader-inline-fill=""></path> <path style="fill: rgb(152, 165, 164); --darkreader-inline-fill: var(--darkreader-text-98a5a4, #aba499);" d="M124.703,118.225c-5.041,0-9.098-4.072-9.098-9.09c0-5.033,4.064-9.098,9.098-9.098 c8.775,0,15.919-7.129,15.919-15.911c0-5.033,4.072-9.098,9.09-9.098c5.033,0,9.09,4.072,9.09,9.098 C158.803,102.92,143.498,118.225,124.703,118.225z" data-darkreader-inline-fill=""></path> <path style="fill: rgb(120, 135, 134); --darkreader-inline-fill: var(--darkreader-text-788786, #988f81);" d="M149.713,143.998c-18.802,0-34.107-15.305-34.107-34.115c0-5.025,4.064-9.074,9.098-9.074 c5.033,0,9.098,4.057,9.098,9.074c0,8.775,7.137,15.927,15.911,15.927c5.033,0,9.09,4.072,9.09,9.09 S154.746,143.998,149.713,143.998z" data-darkreader-inline-fill=""></path> <path style="fill: rgb(152, 165, 164); --darkreader-inline-fill: var(--darkreader-text-98a5a4, #aba499);" d="M124.703,172.04c-5.041,0-9.098-4.072-9.098-9.09s4.064-9.09,9.098-9.09 c8.775,0,15.919-7.152,15.919-15.919c0-5.025,4.072-9.09,9.09-9.09c5.033,0,9.09,4.072,9.09,9.09 C158.803,156.735,143.498,172.04,124.703,172.04z" data-darkreader-inline-fill=""></path> <path style="fill: rgb(120, 135, 134); --darkreader-inline-fill: var(--darkreader-text-788786, #988f81);" d="M149.713,197.813c-18.802,0-34.107-15.305-34.107-34.099c0-5.041,4.064-9.106,9.098-9.106 c5.033,0,9.098,4.072,9.098,9.106c0,8.767,7.137,15.919,15.911,15.919c5.033,0,9.09,4.057,9.09,9.09 C158.803,193.757,154.746,197.813,149.713,197.813z" data-darkreader-inline-fill=""></path> <path style="fill: rgb(152, 165, 164); --darkreader-inline-fill: var(--darkreader-text-98a5a4, #aba499);" d="M124.703,225.855c-5.041,0-9.098-4.072-9.098-9.09c0-5.033,4.064-9.106,9.098-9.106 c8.775,0,15.919-7.121,15.919-15.904c0-5.033,4.072-9.098,9.09-9.098c5.033,0,9.09,4.072,9.09,9.098 C158.803,210.55,143.498,225.855,124.703,225.855z" data-darkreader-inline-fill=""></path> <path style="fill: rgb(120, 135, 134); --darkreader-inline-fill: var(--darkreader-text-788786, #988f81);" d="M383.468,325.049c0.52-1.15,1.15-2.206,1.552-3.434c6.774-20.094-4.025-41.874-24.119-48.656 l-155.49-52.445c-20.078-6.774-41.874,4.009-48.648,24.103c-0.417,1.221-0.544,2.458-0.843,3.694L383.468,325.049z" data-darkreader-inline-fill=""></path> <path style="fill: rgb(147, 160, 159); --darkreader-inline-fill: var(--darkreader-text-93a09f, #a8a095);" d="M161.678,235.158l225.154,75.941c0.756-16.683-9.326-32.54-25.939-38.14l-155.49-52.445 C188.822,214.914,171.169,221.428,161.678,235.158z" data-darkreader-inline-fill=""></path> <path style="fill: rgb(172, 191, 190); --darkreader-inline-fill: var(--darkreader-text-acbfbe, #bab4ab);" d="M343.131,285.633c-0.733,2.166-3.088,3.332-5.246,2.599l-17.117-5.774 c-2.158-0.733-3.34-3.08-2.599-5.246l0,0c0.717-2.158,3.088-3.324,5.246-2.599l17.117,5.774 C342.697,281.112,343.863,283.467,343.131,285.633L343.131,285.633z" data-darkreader-inline-fill=""></path> <path style="fill: rgb(120, 135, 134); --darkreader-inline-fill: var(--darkreader-text-788786, #988f81);" d="M115.716,231.7c0,4.222,0.827,8.208,2.032,12.028h13.871l8.176-16.549l8.184,16.549h1.694 l8.184-16.549l8.192,16.549h1.694l8.184-16.549l8.184,16.549h1.701l8.176-16.549l8.192,16.549h1.694l8.192-16.549l8.184,16.549 h1.694l8.184-16.549l8.184,16.549h1.701l8.176-16.549l8.2,16.549h1.694l8.184-16.549l8.184,16.549h1.694l8.192-16.549l8.184,16.549 h1.694l8.192-16.549l8.184,16.549h1.694l8.184-16.549l8.2,16.549h1.686l8.184-16.549l8.184,16.549h1.701l8.184-16.549l8.176,16.549 h40.991c1.197-3.82,2.032-7.806,2.032-12.028c0-22.181-17.967-40.157-40.157-40.157H155.857 C133.699,191.543,115.716,209.518,115.716,231.7z" data-darkreader-inline-fill=""></path> <path style="fill: rgb(147, 160, 159); --darkreader-inline-fill: var(--darkreader-text-93a09f, #a8a095);" d="M122.435,209.495h278.646c-7.192-10.807-19.48-17.944-33.43-17.944H155.857 C141.915,191.543,129.627,198.688,122.435,209.495z" data-darkreader-inline-fill=""></path> <path style="fill: rgb(214, 0, 0); --darkreader-inline-fill: var(--darkreader-text-d60000, #ff3636);" d="M337.546,353.721c18.818,18.826,18.818,49.341,0,68.143l-11.366,11.343 c-18.786,18.826-49.302,18.826-68.12,0L110.43,285.594c-18.81-18.826-18.81-49.341,0-68.151l11.351-11.335 c18.834-18.826,49.341-18.826,68.135,0L337.546,353.721z" data-darkreader-inline-fill=""></path> <path style="fill: rgb(181, 2, 2); --darkreader-inline-fill: var(--darkreader-text-b50202, #fd4e4e);" d="M110.423,217.442l11.351-11.335c18.834-18.826,49.341-18.826,68.135,0l147.629,147.614 c18.818,18.826,18.818,49.341,0,68.143l-11.366,11.343" data-darkreader-inline-fill=""></path> <g> <path style="fill: rgb(222, 255, 254); --darkreader-inline-fill: var(--darkreader-text-defffe, #b5fffd);" d="M177.432,263.263c2.71,2.733,2.71,7.136,0,9.846l0,0c-2.733,2.718-7.129,2.718-9.846,0 l-28.034-28.05c-2.733-2.733-2.718-7.129,0-9.83l0,0c2.733-2.733,7.113-2.733,9.83,0L177.432,263.263z" data-darkreader-inline-fill=""></path> <path style="fill: rgb(222, 255, 254); --darkreader-inline-fill: var(--darkreader-text-defffe, #b5fffd);" d="M149.39,273.109c-2.718,2.718-7.097,2.718-9.83,0l0,0c-2.718-2.71-2.733-7.113,0-9.838l28.05-28.042 c2.702-2.733,7.097-2.733,9.83,0l0,0c2.71,2.702,2.71,7.097,0,9.83L149.39,273.109z" data-darkreader-inline-fill=""></path> </g> <path style="fill: rgb(120, 135, 134); --darkreader-inline-fill: var(--darkreader-text-788786, #988f81);" d="M378.459,422.762c-3.529-3.529-9.248-3.529-12.776,0c-3.521,3.529-3.521,9.247,0,12.776 c11.54,11.548,11.54,30.326,0,41.866c-11.524,11.532-30.31,11.555-41.858,0c-11.54-11.54-11.555-30.326-0.016-41.866 c0.756-0.772,1.276-1.662,1.709-2.576l-11.926-11.91c-0.906,0.425-1.804,0.945-2.552,1.709 c-18.582,18.59-18.582,48.837,0.008,67.426c9.287,9.295,21.488,13.942,33.697,13.942s24.434-4.647,33.713-13.942 C397.032,471.599,397.032,441.344,378.459,422.762z" data-darkreader-inline-fill=""></path> </g></svg>